<svg width="24" height="24" viewBox="0 0 24 24" fill="none" xmlns="http://www.w3.org/2000/svg">
<path d="M4.00014 21.0006C4.07985 21.0103 4.16043 21.0103 4.24014 21.0006L8.24014 20.0006C8.41758 19.9585 8.58011 19.8685 8.71014 19.7406L21.0001 7.41064C21.3726 7.03591 21.5817 6.52901 21.5817 6.00064C21.5817 5.47226 21.3726 4.96536 21.0001 4.59064L19.4201 3.00064C19.2344 2.81468 19.0138 2.66716 18.771 2.56652C18.5282 2.46587 18.268 2.41406 18.0051 2.41406C17.7423 2.41406 17.4821 2.46587 17.2393 2.56652C16.9965 2.66716 16.7759 2.81468 16.5901 3.00064L4.30014 15.2906C4.17092 15.4213 4.07788 15.5832 4.03014 15.7606L3.03014 19.7606C2.99419 19.89 2.98468 20.0253 3.00216 20.1585C3.01965 20.2916 3.06377 20.4199 3.1319 20.5356C3.20003 20.6513 3.29076 20.7521 3.3987 20.832C3.50664 20.9119 3.62956 20.9693 3.76014 21.0006C3.83985 21.0103 3.92043 21.0103 4.00014 21.0006ZM18.0001 4.41064L19.5901 6.00064L18.0001 7.59064L16.4201 6.00064L18.0001 4.41064ZM5.91014 16.5106L15.0001 7.41064L16.5901 9.00064L7.49014 18.1006L5.38014 18.6206L5.91014 16.5106Z" fill="black"/>
</svg>
